<?xml version="1.0" standalone="no"?>
<!DOCTYPE svg PUBLIC "-//W3C//DTD SVG 1.1//EN" "http://www.w3.org/Graphics/SVG/1.1/DTD/svg11.dtd" >
<svg xmlns="http://www.w3.org/2000/svg" xmlns:xlink="http://www.w3.org/1999/xlink" version="1.1">
<metadata></metadata>
<defs>
<font id="backstreetregular" horiz-adv-x="1100" >
<font-face units-per-em="2048" ascent="1638" descent="-410" />
<missing-glyph horiz-adv-x="424" />
<glyph unicode="&#xd;" horiz-adv-x="508" />
<glyph unicode=" "  horiz-adv-x="424" />
<glyph unicode="&#x09;" horiz-adv-x="424" />
<glyph unicode="&#xa0;" horiz-adv-x="424" />
<glyph unicode="!" horiz-adv-x="497" d="M62 1024h396v-634h-396v634zM458 250v-250h-396v250h396z" />
<glyph unicode="&#x22;" horiz-adv-x="704" d="M52 1024h274v-369h-274v369zM372 1024h274v-369h-274v369z" />
<glyph unicode="#" horiz-adv-x="1106" d="M202 482v74h-159v296h159v172h296v-172h114v172h296v-172h159v-296h-159v-74h159v-296h-159v-186h-296v186h-114v-186h-296v186h-159v296h159zM498 556v-74h114v74h-114z" />
<glyph unicode="$" d="M502 0h-188q-101 0 -173 72t-72 174v77h396v-29q0 -14 14 -14h23v92h-152q-288 0 -288 274v133q0 101 72 173t174 72h194v91h113v-91h193q102 0 174 -72t72 -173v-81h-396v32q0 14 -14 14h-29v-92h149q289 0 289 -274v-132q0 -102 -72 -174t-173 -72h-193v-110h-113v110z M502 744h-30q-14 0 -14 -14v-65q0 -13 14 -13h30v92zM615 280h28q14 0 14 14v59q0 19 -14 19h-28v-92z" />
<glyph unicode="%" horiz-adv-x="2027" d="M1162 1024h286l-600 -1024h-286zM863 646q0 -102 -72 -174t-173 -72h-350q-102 0 -174 72t-72 174v133q0 101 72 173t174 72h350q101 0 173 -72t72 -173v-133zM467 730q0 14 -14 14h-21q-14 0 -14 -14v-36q0 -14 14 -14h21q14 0 14 14v36zM1985 246q0 -102 -72 -174 t-173 -72h-350q-102 0 -174 72t-72 174v133q0 101 72 173t174 72h350q101 0 173 -72t72 -173v-133zM1589 330q0 14 -14 14h-21q-14 0 -14 -14v-36q0 -14 14 -14h21q14 0 14 14v36z" />
<glyph unicode="&#x26;" horiz-adv-x="1186" d="M651 372h-178q-14 0 -14 -19v-59q0 -14 14 -14h164q14 0 14 14v78zM651 652v372h396v-372h111v-280h-111v-126q0 -102 -72 -174t-173 -72h-494q-101 0 -173 72t-72 174v132q0 77 53 133q-54 56 -54 135v133q0 101 72 173t174 72h276v-280h-112q-14 0 -14 -14v-65 q0 -13 14 -13h179z" />
<glyph unicode="'" horiz-adv-x="378" d="M52 1024h274v-369h-274v369z" />
<glyph unicode="(" horiz-adv-x="686" d="M62 1188q0 102 72 174t174 72h335v-280h-171q-14 0 -14 -14v-1246q0 -14 14 -14h171v-280h-335q-102 0 -174 72t-72 174v1342z" />
<glyph unicode=")" horiz-adv-x="686" d="M643 -154q0 -102 -72 -174t-174 -72h-335v280h171q14 0 14 14v1246q0 14 -14 14h-171v280h335q102 0 174 -72t72 -174v-1342z" />
<glyph unicode="*" horiz-adv-x="655" d="M175 715l-125 72l78 135l138 -80v179h156v-179l137 80l79 -135l-126 -72l126 -73l-79 -135l-137 80v-179h-156v179l-138 -80l-78 135z" />
<glyph unicode="+" horiz-adv-x="838" d="M562 783h224v-280h-224v-224h-280v224h-224v280h224v224h280v-224z" />
<glyph unicode="," horiz-adv-x="378" d="M52 254h274v-521h-274v521z" />
<glyph unicode="-" horiz-adv-x="655" d="M619 503h-561v280h561v-280z" />
<glyph unicode="." horiz-adv-x="497" d="M458 250v-250h-396v250h396z" />
<glyph unicode="/" horiz-adv-x="966" d="M652 1024h286l-600 -1024h-286z" />
<glyph unicode="0" d="M1053 246q0 -102 -72 -174t-173 -72h-500q-102 0 -174 72t-72 174v533q0 101 72 173t174 72h500q101 0 173 -72t72 -173v-533zM657 730q0 14 -14 14h-171q-14 0 -14 -14v-436q0 -14 14 -14h171q14 0 14 14v436z" />
<glyph unicode="1" horiz-adv-x="585" d="M62 1024h482v-1024h-396v744h-86v280z" />
<glyph unicode="2" d="M63 0v378q0 274 289 274h292q14 0 14 13v65q0 14 -14 14h-172q-14 0 -14 -14v-32h-396v81q0 101 72 173t174 72h500q102 0 174 -72t72 -173v-133q0 -274 -288 -274h-293q-14 0 -14 -19v-59q0 -14 14 -14h549v-280h-959z" />
<glyph unicode="3" d="M644 652q14 0 14 13v65q0 14 -14 14h-172q-14 0 -14 -14v-32h-396v81q0 101 72 173t174 72h500q102 0 174 -72t72 -173v-133q0 -79 -54 -135q53 -56 53 -133v-132q0 -102 -72 -174t-173 -72h-494q-101 0 -173 72t-72 174v77h396v-29q0 -14 14 -14h164q14 0 14 14v59 q0 19 -14 19h-195v280h196z" />
<glyph unicode="4" d="M62 376v648h396v-402h200v402h396v-1024h-396v376h-596z" />
<glyph unicode="5" d="M1022 1024v-280h-549q-14 0 -14 -14v-59q0 -19 14 -19h293q288 0 288 -274v-133q0 -101 -72 -173t-174 -72h-500q-102 0 -174 72t-72 173v81h396v-32q0 -14 14 -14h172q14 0 14 14v65q0 13 -14 13h-292q-289 0 -289 274v378h959z" />
<glyph unicode="6" d="M458 294q0 -14 14 -14h164q14 0 14 14v59q0 19 -14 19h-178v-78zM62 779q0 101 68.5 173t170.5 72h500q102 0 174 -72t72 -173v-81h-396v32q0 14 -14 14h-172q-14 0 -14 -14v-65q0 -13 14 -13h292q289 0 289 -274v-132q0 -102 -72 -174t-173 -72h-494q-101 0 -173 72 t-72 174v533z" />
<glyph unicode="7" d="M62 1024h1002l-420 -1024h-396l310 744h-496v280z" />
<glyph unicode="8" d="M453 744q-14 0 -14 -14v-65q0 -13 14 -13h191q14 0 14 13v65q0 14 -14 14h-191zM643 280q14 0 14 14v59q0 19 -14 19h-189q-14 0 -14 -19v-59q0 -14 14 -14h189zM808 1024q102 0 174 -72t72 -173v-133q0 -79 -54 -135q53 -56 53 -133v-132q0 -102 -72 -174t-173 -72h-519 q-101 0 -173 72t-72 174v132q0 77 53 133q-54 56 -54 135v133q0 101 72 173t174 72h519z" />
<glyph unicode="9" d="M651 730q0 14 -14 14h-164q-14 0 -14 -14v-59q0 -19 14 -19h178v78zM1047 245q0 -101 -68.5 -173t-170.5 -72h-500q-102 0 -174 72t-72 173v81h396v-32q0 -14 14 -14h172q14 0 14 14v65q0 13 -14 13h-292q-289 0 -289 274v132q0 102 72 174t173 72h494q101 0 173 -72 t72 -174v-533z" />
<glyph unicode=":" horiz-adv-x="497" d="M458 250v-250h-396v250h396zM458 750v-250h-396v250h396z" />
<glyph unicode=";" horiz-adv-x="497" d="M448 750v-250h-396v250h396zM52 254h396v-521h-396v521z" />
<glyph unicode="&#x3c;" horiz-adv-x="655" d="M58 723l561 301v-280l-229 -115l229 -116v-280l-561 301v189z" />
<glyph unicode="=" horiz-adv-x="655" d="M619 613h-561v280h561v-280zM619 272h-561v280h561v-280z" />
<glyph unicode="&#x3e;" horiz-adv-x="655" d="M619 534l-561 -301v280l229 116l-229 115v280l561 -301v-189z" />
<glyph unicode="?" d="M283 320v58q0 274 289 274h72q14 0 14 13v65q0 14 -14 14h-172q-14 0 -14 -14v-32h-396v81q0 101 72 173t174 72h500q102 0 174 -72t72 -173v-133q0 -274 -288 -274h-73q-14 0 -14 -19v-33h-396zM678 250v-250h-396v250h396z" />
<glyph unicode="@" d="M458 294q0 -14 14 -14h536v-280h-700q-102 0 -174 72t-72 174v533q0 101 72 173t174 72h500q101 0 173 -72t72 -173v-186q0 -227 -241 -227h-261v246h106v118q0 14 -14 14h-171q-14 0 -14 -14v-436z" />
<glyph unicode="A" d="M458 277v-277h-396v778q0 102 72 174t174 72h500q101 0 173 -72t72 -174v-778h-396v277h-199zM657 557v173q0 14 -14 14h-171q-14 0 -14 -14v-173h199z" />
<glyph unicode="B" d="M458 674q0 -14 14 -14h171q14 0 14 14v56q0 14 -14 14h-171q-14 0 -14 -14v-56zM458 294q0 -14 14 -14h171q14 0 14 14v76q0 14 -14 14h-171q-14 0 -14 -14v-76zM998 527q55 -49 55 -148v-133q0 -102 -72 -174t-173 -72h-746v1024h746q101 0 173 -72t72 -174v-103 q0 -99 -55 -148z" />
<glyph unicode="C" d="M657 422h396v-176q0 -102 -72 -174t-173 -72h-500q-102 0 -174 72t-72 174v533q0 101 72 173t174 72h500q101 0 173 -72t72 -173v-177h-396v128q0 14 -14 14h-171q-14 0 -14 -14v-436q0 -14 14 -14h171q14 0 14 14v128z" />
<glyph unicode="D" d="M657 730q0 14 -14 14h-171q-14 0 -14 -14v-436q0 -14 14 -14h171q14 0 14 14v436zM1053 246q0 -102 -72 -174t-173 -72h-746v1024h746q101 0 173 -72t72 -174v-532z" />
<glyph unicode="E" d="M1044 744h-586v-122h456v-246h-456v-96h586v-280h-982v1024h982v-280z" />
<glyph unicode="F" d="M1044 744h-586v-122h456v-246h-456v-376h-396v1024h982v-280z" />
<glyph unicode="G" d="M458 294q0 -14 14 -14h171q14 0 14 14v88h-106v246h502v-383q0 -101 -72 -173t-173 -72h-500q-102 0 -174 72t-72 173v533q0 102 72 174t174 72h500q101 0 173 -72t72 -174v-76h-396v28q0 14 -14 14h-171q-14 0 -14 -14v-436z" />
<glyph unicode="H" d="M458 376v-376h-396v1024h396v-402h200v402h396v-1024h-396v376h-200z" />
<glyph unicode="I" horiz-adv-x="497" d="M52 1024h396v-1024h-396v1024z" />
<glyph unicode="J" d="M458 424v-130q0 -14 14 -14h171q14 0 14 14v730h396v-778q0 -102 -72 -174t-173 -72h-500q-102 0 -174 72t-72 174v178h396z" />
<glyph unicode="K" d="M458 430v-430h-396v1024h396v-300l199 300h426l-303 -440l303 -584h-426z" />
<glyph unicode="L" d="M1044 0h-982v1024h396v-744h586v-280z" />
<glyph unicode="M" horiz-adv-x="1698" d="M1007 1024h410q102 0 174 -72t72 -174v-778h-396v730q0 14 -14 14h-171q-14 0 -14 -14v-730h-411v730q0 14 -14 14h-171q-14 0 -14 -14v-730h-396v778q0 102 72 174t174 72h410q92 0 145 -67q52 67 144 67z" />
<glyph unicode="N" d="M458 406v-406h-396v1024h396l200 -432v432h396v-1024h-396z" />
<glyph unicode="O" d="M1053 246q0 -102 -72 -174t-173 -72h-500q-102 0 -174 72t-72 174v533q0 101 72 173t174 72h500q101 0 173 -72t72 -173v-533zM657 730q0 14 -14 14h-171q-14 0 -14 -14v-436q0 -14 14 -14h171q14 0 14 14v436z" />
<glyph unicode="P" d="M458 0h-396v1024h746q101 0 173 -72t72 -174v-233q0 -101 -72 -173t-173 -72h-350v-300zM458 594q0 -14 14 -14h171q14 0 14 14v136q0 14 -14 14h-171q-14 0 -14 -14v-136z" />
<glyph unicode="Q" d="M657 730q0 14 -14 14h-171q-14 0 -14 -14v-436q0 -14 14 -14h171q14 0 14 14v436zM418 0h-110q-102 0 -174 72t-72 174v533q0 101 72 173t174 72h500q101 0 173 -72t72 -173v-533q0 -102 -72 -174t-173 -72h-110v-177h-280v177z" />
<glyph unicode="R" d="M458 594q0 -14 14 -14h171q14 0 14 14v136q0 14 -14 14h-171q-14 0 -14 -14v-136zM657 0v290q0 14 -14 14h-171q-14 0 -14 -14v-290h-396v1024h746q101 0 173 -72t72 -174v-183q0 -99 -55 -148q55 -49 55 -148v-299h-396z" />
<glyph unicode="S" d="M314 0q-101 0 -173 72t-72 174v77h396v-29q0 -14 14 -14h164q14 0 14 14v59q0 19 -14 19h-293q-288 0 -288 274v133q0 101 72 173t174 72h500q102 0 174 -72t72 -173v-81h-396v32q0 14 -14 14h-172q-14 0 -14 -14v-65q0 -13 14 -13h292q289 0 289 -274v-132 q0 -102 -72 -174t-173 -72h-494z" />
<glyph unicode="T" d="M751 744v-744h-396v744h-293v280h982v-280h-293z" />
<glyph unicode="U" d="M458 1024v-730q0 -14 14 -14h171q14 0 14 14v730h396v-778q0 -102 -72 -174t-173 -72h-500q-102 0 -174 72t-72 174v778h396z" />
<glyph unicode="V" d="M458 1024v-744h185q14 0 14 14v730h396v-778q0 -102 -72 -174t-173 -72h-746v1024h396z" />
<glyph unicode="W" horiz-adv-x="1698" d="M863 67q-53 -67 -145 -67h-410q-102 0 -174 72t-72 174v778h396v-730q0 -14 14 -14h171q14 0 14 14v730h411v-730q0 -14 14 -14h171q14 0 14 14v730h396v-778q0 -102 -72 -174t-174 -72h-410q-92 0 -144 67z" />
<glyph unicode="X" horiz-adv-x="1152" d="M571 793l126 231h426l-303 -480l303 -544h-426l-126 233l-127 -233h-426l303 544l-303 480h426z" />
<glyph unicode="Y" horiz-adv-x="1152" d="M383 424l-355 600h426l127 -261l126 261h426l-354 -600v-424h-396v424z" />
<glyph unicode="Z" d="M63 0v259l495 485h-470v280h966v-239l-495 -505h483v-280h-979z" />
<glyph unicode="[" horiz-adv-x="686" d="M62 1188q0 102 72 174t174 72h335v-280h-171q-14 0 -14 -14v-1246q0 -14 14 -14h171v-280h-335q-102 0 -174 72t-72 174v1342z" />
<glyph unicode="\" horiz-adv-x="966" d="M938 0h-286l-600 1024h286z" />
<glyph unicode="]" horiz-adv-x="686" d="M643 -154q0 -102 -72 -174t-174 -72h-335v280h171q14 0 14 14v1246q0 14 -14 14h-171v280h335q102 0 174 -72t72 -174v-1342z" />
<glyph unicode="^" horiz-adv-x="674" d="M458 1024l182 -223h-266l-43 56l-43 -56h-266l172 223h264z" />
<glyph unicode="_" d="M62 150h982v-150h-982v150z" />
<glyph unicode="`" horiz-adv-x="521" d="M480 801h-286l-142 223h286z" />
<glyph unicode="a" d="M651 372h-178q-14 0 -14 -19v-59q0 -14 14 -14h164q14 0 14 14v78zM1047 246q0 -102 -72 -174t-173 -72h-494q-101 0 -173 72t-72 174v132q0 274 289 274h292q14 0 14 13v65q0 14 -14 14h-172q-14 0 -14 -14v-32h-396v81q0 101 72 173t174 72h500q102 0 170.5 -72 t68.5 -173v-533z" />
<glyph unicode="b" d="M458 1024h350q101 0 173 -72t72 -173v-533q0 -102 -72 -174t-173 -72h-746v1434h396v-410zM458 294q0 -14 14 -14h171q14 0 14 14v436q0 14 -14 14h-171q-14 0 -14 -14v-436z" />
<glyph unicode="c" d="M657 422h396v-176q0 -102 -72 -174t-173 -72h-500q-102 0 -174 72t-72 174v533q0 101 72 173t174 72h500q101 0 173 -72t72 -173v-177h-396v128q0 14 -14 14h-171q-14 0 -14 -14v-436q0 -14 14 -14h171q14 0 14 14v128z" />
<glyph unicode="d" d="M657 1434h396v-1434h-746q-101 0 -173 72t-72 174v533q0 101 72 173t173 72h350v410zM657 730q0 14 -14 14h-171q-14 0 -14 -14v-436q0 -14 14 -14h171q14 0 14 14v436z" />
<glyph unicode="e" d="M458 376v-82q0 -14 14 -14h171q14 0 14 14v28h396v-76q0 -102 -72 -174t-173 -72h-500q-102 0 -174 72t-72 174v533q0 101 72 173t174 72h500q101 0 173 -72t72 -173v-403h-595zM657 622v108q0 14 -14 14h-171q-14 0 -14 -14v-108h199z" />
<glyph unicode="f" d="M743 900v-280h-285v-620h-396v1188q0 102 72 174t174 72h500q101 0 173 -72t72 -174v-178h-396v130q0 14 -14 14h-171q-14 0 -14 -14v-240h285z" />
<glyph unicode="g" d="M657 730q0 14 -14 14h-171q-14 0 -14 -14v-436q0 -14 14 -14h171q14 0 14 14v436zM253 -110h390q14 0 14 14v96h-350q-101 0 -173 72t-72 173v533q0 102 72 174t173 72h746v-1168q0 -102 -72 -174t-174 -72h-554v280z" />
<glyph unicode="h" d="M657 0v730q0 14 -14 14h-171q-14 0 -14 -14v-730h-396v1434h396v-410h350q101 0 173 -72t72 -173v-779h-396z" />
<glyph unicode="i" horiz-adv-x="497" d="M62 1024h396v-1024h-396v1024zM62 1164v250h396v-250h-396z" />
<glyph unicode="j" horiz-adv-x="497" d="M62 1024h396v-1168q0 -102 -72 -174t-174 -72h-244v280h80q14 0 14 14v1120zM62 1164v250h396v-250h-396z" />
<glyph unicode="k" d="M458 430v-430h-396v1434h396v-710l199 300h426l-303 -440l303 -584h-426z" />
<glyph unicode="l" horiz-adv-x="497" d="M458 0h-396v1434h396v-1434z" />
<glyph unicode="m" horiz-adv-x="1698" d="M1007 1024h410q102 0 174 -72t72 -174v-778h-396v730q0 14 -14 14h-171q-14 0 -14 -14v-730h-411v730q0 14 -14 14h-171q-14 0 -14 -14v-730h-396v778q0 102 72 174t174 72h410q92 0 145 -67q52 67 144 67z" />
<glyph unicode="n" d="M62 0v778q0 102 72 174t174 72h500q101 0 173 -72t72 -174v-778h-396v730q0 14 -14 14h-171q-14 0 -14 -14v-730h-396z" />
<glyph unicode="o" d="M1053 246q0 -102 -72 -174t-173 -72h-500q-102 0 -174 72t-72 174v533q0 101 72 173t174 72h500q101 0 173 -72t72 -173v-533zM657 730q0 14 -14 14h-171q-14 0 -14 -14v-436q0 -14 14 -14h171q14 0 14 14v436z" />
<glyph unicode="p" d="M458 -410h-396v1434h746q101 0 173 -72t72 -174v-533q0 -101 -72 -173t-173 -72h-350v-410zM458 294q0 -14 14 -14h171q14 0 14 14v436q0 14 -14 14h-171q-14 0 -14 -14v-436z" />
<glyph unicode="q" d="M657 0h-350q-101 0 -173 72t-72 173v533q0 102 72 174t173 72h746v-1434h-396v410zM657 730q0 14 -14 14h-171q-14 0 -14 -14v-436q0 -14 14 -14h171q14 0 14 14v436z" />
<glyph unicode="r" d="M62 0v778q0 102 72 174t174 72h500q101 0 173 -72t72 -174v-178h-396v130q0 14 -14 14h-171q-14 0 -14 -14v-730h-396z" />
<glyph unicode="s" d="M314 0q-101 0 -173 72t-72 174v77h396v-29q0 -14 14 -14h164q14 0 14 14v59q0 19 -14 19h-293q-288 0 -288 274v133q0 101 72 173t174 72h500q102 0 174 -72t72 -173v-81h-396v32q0 14 -14 14h-172q-14 0 -14 -14v-65q0 -13 14 -13h292q289 0 289 -274v-132 q0 -102 -72 -174t-173 -72h-494z" />
<glyph unicode="t" d="M458 744v-450q0 -14 14 -14h171q14 0 14 14v230h396v-278q0 -102 -72 -174t-173 -72h-500q-102 0 -174 72t-72 174v1188h396v-410h595v-280h-595z" />
<glyph unicode="u" d="M458 1024v-730q0 -14 14 -14h171q14 0 14 14v730h396v-778q0 -102 -72 -174t-173 -72h-500q-102 0 -174 72t-72 174v778h396z" />
<glyph unicode="v" d="M458 1024v-744h185q14 0 14 14v730h396v-778q0 -102 -72 -174t-173 -72h-746v1024h396z" />
<glyph unicode="w" horiz-adv-x="1698" d="M863 67q-53 -67 -145 -67h-410q-102 0 -174 72t-72 174v778h396v-730q0 -14 14 -14h171q14 0 14 14v730h411v-730q0 -14 14 -14h171q14 0 14 14v730h396v-778q0 -102 -72 -174t-174 -72h-410q-92 0 -144 67z" />
<glyph unicode="x" horiz-adv-x="1152" d="M571 793l126 231h426l-303 -480l303 -544h-426l-126 233l-127 -233h-426l303 544l-303 480h426z" />
<glyph unicode="y" d="M458 1024v-730q0 -14 14 -14h171q14 0 14 14v730h396v-1168q0 -102 -72 -174t-174 -72h-554v280h390q14 0 14 14v96h-350q-101 0 -173 72t-72 173v779h396z" />
<glyph unicode="z" d="M63 0v378q0 274 289 274h292q14 0 14 13v65q0 14 -14 14h-556v280h966v-378q0 -274 -288 -274h-293q-14 0 -14 -19v-59q0 -14 14 -14h569v-280h-979z" />
<glyph unicode="{" horiz-adv-x="686" d="M62 1188q0 102 72 174t174 72h335v-280h-171q-14 0 -14 -14v-1246q0 -14 14 -14h171v-280h-335q-102 0 -174 72t-72 174v1342z" />
<glyph unicode="|" horiz-adv-x="497" d="M62 1434h396v-1834h-396v1834z" />
<glyph unicode="}" horiz-adv-x="686" d="M643 -154q0 -102 -72 -174t-174 -72h-335v280h171q14 0 14 14v1246q0 14 -14 14h-171v280h335q102 0 174 -72t72 -174v-1342z" />
<glyph unicode="~" horiz-adv-x="957" d="M911 523q-243 -120 -406.5 20t-446.5 -20v280q283 160 446.5 20t406.5 -20v-280z" />
<glyph unicode="&#xd4;" horiz-adv-x="2568" d="M622 702v3q0 97 -173 103l-2 -208q172 1 175 102zM346 997l-5 -535q433 3 440 261v9q0 249 -435 265zM1163 957l16 -372l119 25l6 -127l-241 -36l-39 497zM1380 966l72 -173l63 183l104 -23l-197 -492l-94 30l75 196l-145 246zM1749 920l30 4q125 16 145 -115 q4 -30 4 -68q-9 -227 -182 -253q-143 -19 -167 139l-6 45q-7 205 176 248zM1695 684.5q-2 -104.5 58 -85t61 127.5t-58 85t-61 -127.5zM2158 751l-17 175l114 -3l-10 -410l-170 157l20 -157h-120l-33 412zM2526 839q-132 0 -126.5 -22t81 -76.5t47 -153.5t-259.5 -78l-6 97 q58 -7 105.5 -7t50 32t-68.5 84t-71 109q16 106 222 89zM1582 442l-4 -178q146 6 151 86.5t-147 91.5zM1684.5 350.5q-1.5 -30.5 -52.5 -32.5l2 67q52 -4 50.5 -34.5zM1736 429l6 -162l124 5l-3 46l-70 -6l-3 21l61 3l-2 43l-57 -5l-2 23l71 3l-3 42zM2024 379l7 -111l48 2 l-5 111zM2239 398q-28 49 -70.5 41.5t-55.5 -42.5t-5.5 -65t28.5 -47.5t49.5 -13.5t43.5 28t12 63l-61 5l-3 -35h25q-7 -16 -22 -16t-21.5 15t-4 35.5t16 27t24.5 -12.5zM2249 429l7 -162l47 1l-5 76l52 -72l40 5l5 159h-45l-2 -84l-44 83zM2068 446q9 -8 9 -20t-9 -20.5 t-23 -8.5q-13 0 -22.5 8.5t-9.5 20.5t9.5 20t22.5 8q14 0 23 -8zM2002 423q-83 28 -100.5 -5.5t19.5 -65.5t22.5 -40t-46.5 19l-18 -40q30 -25 72.5 -23t51.5 35t-26 56q-36 23 -29 33.5t44 -4.5zM840.5 999.5q141.5 -115.5 141.5 -279.5t-141.5 -279.5t-341.5 -115.5 q-199 0 -340.5 115.5t-141.5 279.5t141.5 279.5t340.5 115.5q200 0 341.5 -115.5z" />
<glyph unicode="&#xd5;" horiz-adv-x="3045" d="M414 594v-67h-96v188q0 24 17.5 41.5t41.5 17.5h121q24 0 41.5 -17.5t17.5 -41.5v-188h-95v67h-48zM462 661v42q0 3 -4 3h-41q-3 0 -3 -3v-42h48zM168 690q0 -4 3 -4h41q4 0 4 4v13q0 3 -4 3h-41q-3 0 -3 -3v-13zM168 598q0 -3 3 -3h41q4 0 4 3v18q0 4 -4 4h-41 q-3 0 -3 -4v-18zM298 654q13 -12 13 -36v-32q0 -24 -17.5 -41.5t-41.5 -17.5h-180v247h180q24 0 41.5 -17.5t17.5 -41.5v-25q0 -24 -13 -36zM709 629h96v-43q0 -24 -17.5 -41.5t-41.5 -17.5h-121q-25 0 -42 17.5t-17 41.5v129q0 24 17 41.5t42 17.5h121q24 0 41.5 -17.5 t17.5 -41.5v-43h-96v31q0 3 -3 3h-41q-4 0 -4 -3v-105q0 -3 4 -3h41q3 0 3 3v31zM2032 706h-141v-29h110v-59h-110v-23h141v-68h-237v247h237v-68zM915 631v-104h-96v247h96v-72l48 72h102l-73 -106l73 -141h-102zM1641 670q0 -3 4 -3h41q3 0 3 3v33q0 3 -3 3h-41 q-4 0 -4 -3v-33zM1689 527v70q0 3 -3 3h-41q-4 0 -4 -3v-70h-95v247h180q24 0 41.5 -17.5t17.5 -41.5v-44q0 -24 -13 -36q13 -12 13 -36v-72h-96zM1116 527q-24 0 -41.5 17.5t-17.5 41.5v19h96v-7q0 -3 3 -3h40q3 0 3 3v14q0 5 -3 5h-71q-70 0 -70 66v32q0 24 17.5 41.5 t42.5 17.5h120q25 0 42.5 -17.5t17.5 -41.5v-20h-96v8q0 3 -3 3h-42q-3 0 -3 -3v-16q0 -3 3 -3h71q69 0 69 -66v-32q0 -24 -17 -41.5t-42 -17.5h-119zM1467 706v-179h-96v179h-71v68h237v-68h-70zM2276 706h-142v-29h110v-59h-110v-23h142v-68h-237v247h237v-68zM2451 706 v-179h-96v179h-70v68h236v-68h-70zM1380 497h5l4 -5v-5l-1 -1v-2l-8 2h-2q-6 -4 -6 -10v-10h13l1 -3v-6l-1 -2h-13v-61l-3 -1h-7l-4 1v61h-9l-3 2v6l3 3h9v13q0 18 22 18zM1856 497q32 0 32 -31q0 -25 -39 -44q-10 -12 -10 -18v-2h45l3 -3v-5l-3 -1h-56l-3 1v8q0 23 36 39 q13 14 13 22v8q0 15 -18 15h-2q-13 0 -17 -22h-9l-3 3v4q3 26 26 26h5zM1334 495h7l1 -3v-98l-1 -1h-7q-3 0 -3 6q-7 -6 -18 -6h-5q-25 0 -25 31v9q0 33 25 33h5q11 0 18 -9v35zM1466 495h7l2 -3v-98l-2 -1h-7l-2 1v98zM1487 495h6l4 -3v-98l-4 -1h-6l-2 1v98zM1786 495h8 l3 -3v-98l-3 -1h-8l-2 1v82h-19l-2 3v0q0 3 18 7zM1940 495h2q40 0 40 -48v-4q0 -27 -14 -27h-11l-6 4l-11 -4h-3q-18 0 -18 31q0 27 18 27h3l10 -3l1 3h6l5 -3v-45l3 -4h1q7 3 7 15v18q-5 32 -31 32h-3q-30 0 -30 -42q0 -46 34 -46q14 0 22 10h8l1 -3q-9 -13 -31 -13h-3 q-25 0 -36 21l-6 23v16q0 34 33 39zM2241 495h7l3 -3v-8l-3 -4h-7l-3 4v8zM2262 495h7l3 -3v-98l-3 -1h-7l-3 1v98zM1931 451v-10q0 -13 8 -17q11 0 11 13v18q0 11 -11 11q-8 -3 -8 -15zM1168 466h7q1 0 1 -9q10 9 20 9h2l3 -3v-6q0 -2 -15 -2q-10 -7 -10 -23v-38l-1 -1h-7 l-3 1v69zM1242 466q30 -3 30 -28v-18q0 -27 -32 -27q-23 0 -31 21v6v17q0 29 33 29zM1424 466q32 0 32 -41l-2 -1h-49q0 -22 22 -22q7 0 17 14h9v-6q0 -16 -25 -17h-1q-34 0 -34 27v17q0 29 31 29zM1539 466q31 -3 31 -28v-18q0 -27 -33 -27q-24 0 -29 21v6v17q0 29 31 29z M1587 466q6 -3 19 -59h1q11 59 15 59h10q4 0 17 -57h4q10 50 16 57h8l2 -2v0q-20 -71 -23 -71h-10q-6 0 -18 56h-2q-10 -56 -16 -56h-9q-3 0 -25 71l2 2h9zM1708 466h5q26 0 26 -19v-2h-10q-8 10 -15 10h-4q-8 0 -14 -7v-5q4 -6 38 -13q8 -12 8 -16q0 -21 -29 -21h-2 q-27 1 -27 17v0l3 6h7q8 -14 16 -14h3q13 0 14 8v6q0 6 -32 14q-9 7 -9 13v6q0 14 22 17zM2019 466h4q10 0 20 -9q0 9 3 9h6l2 -3v-78q0 -23 -31 -23h-2q-31 1 -31 19l4 2h8q10 -10 19 -10h2q20 0 20 20v6q-10 -6 -20 -6h-4q-29 0 -29 31v9q0 33 29 33zM2067 466h7q3 0 3 -9 v0q0 9 16 9h2q11 0 19 -9q8 9 18 9q28 0 28 -33v-39l-4 -1h-8l-3 1v47q0 14 -13 14q-15 0 -15 -25v-36l-3 -1h-6l-2 1v44q0 17 -15 17q-14 0 -14 -18v-43l-3 -1h-7l-3 1v69zM2192 466h7q21 0 26 -21v-39q0 -4 5 -4l1 -1v-7l-1 -1h-5q-10 0 -10 5q-12 -5 -18 -5h-3 q-28 0 -28 16v7q0 17 43 21l4 8q0 10 -19 10q-7 0 -13 -8h-9l-4 2q0 14 24 17zM2241 466h7l3 -3v-69l-3 -1h-7l-3 1v69zM2332 466h5q24 0 28 -19l-2 -2h-10q-7 10 -16 10q-21 0 -21 -29q0 -24 21 -24q9 0 16 12h8l4 -4q0 -16 -28 -17h-5q-31 3 -31 27v17q5 29 31 29z M2405 466q29 -3 29 -28v-18q0 -27 -30 -27q-25 0 -28 21l-2 6v17q0 29 31 29zM2449 466h6q4 0 4 -9h2q0 9 14 9h2q9 0 19 -9q8 9 18 9q28 0 28 -33v-39l-6 -1h-6l-3 1v47q0 14 -13 14q-14 0 -14 -25v-36l-4 -1h-7l-3 1v44q0 17 -13 17q-14 0 -14 -18v-43l-4 -1h-6l-3 1v69z M1221 426q0 -24 22 -24q18 0 18 28q0 25 -23 25q-17 0 -17 -29zM1293 426q0 -24 22 -24q16 0 16 28q0 25 -21 25q-17 0 -17 -29zM1405 433h38q-1 22 -21 22q-15 0 -17 -22zM1520 426q0 -24 20 -24q17 0 17 28q0 25 -21 25q-16 0 -16 -29zM2004 426q0 -24 21 -24q18 0 18 28 q0 25 -23 25q-16 0 -16 -29zM2385 426q0 -24 22 -24q16 0 16 28q0 25 -21 25q-17 0 -17 -29zM2181 416v-7q2 -7 13 -7h1q18 0 18 14v10q-32 -2 -32 -10zM2283 406h7l3 -4v-8l-3 -1h-7l-3 1v8zM2912.5 751.5q68.5 -51.5 68.5 -124.5q0 -74 -68.5 -127t-162.5 -53 q-97 0 -165 53t-68 127q0 73 68 124.5t165 51.5q94 0 162.5 -51.5zM2751 752q-79 0 -136.5 -39t-57.5 -97q0 -54 57.5 -93.5t136.5 -39.5q78 0 135.5 39.5t57.5 93.5q0 58 -57.5 97t-135.5 39zM2878 615v-2q-5 -96 -206 -96l2 195q204 -7 204 -97zM2721 568q80 0 81 36 q0 35 -80 38z" />
<glyph unicode="&#xd6;" horiz-adv-x="1487" d="M361.5 120q31.5 5 33 -23t-29 -32.5t-33 23t29 32.5zM550 111q1 -10 -44 -14l-1 21q44 5 45 -7zM356 170q-80 -14 -74 -95t84.5 -67t74 95t-84.5 67zM622 169l5 -167l52 3l-6 167zM860 3l-1 99l-51 -1v-38q-49 7 -48 32q1 32 76 26l7 52q-135 11 -139.5 -80t156.5 -90z M882 171l5 -167l52 3l-6 167zM516 62l49 -60l47 17l-47 57q34 17 32 48q-5 64 -145 44l5 -167l52 3l-2 57q5 0 9 1zM1074 7l52 3l-6 167l-51 -3l2 -81l-58 81l-51 -3l5 -167l52 3l-3 71zM750 829h152q110 0 188 78t78 188t-78 188t-188 78h-222v-1141h-302 q-143 0 -244.5 101.5t-101.5 244.5t101.5 244.5t244.5 101.5h152v-80h-152q-110 0 -188 -78t-78 -188t78 -188t188 -78h222v1141h302q143 0 244.5 -101.5t101.5 -244.5t-101.5 -244.5t-244.5 -101.5h-72v-449h422v-80h-502v609zM1254 32l18 -28l43 30l-73 141l-39 -2 l-60 -156l49 -18l10 27zM1223 81l10 -16l-17 -3zM1457 12l-3 52l-74 -3l-4 115l-51 -3l5 -167z" />
<glyph unicode="&#x25fc;" horiz-adv-x="1025" d="M0 1025h1025v-1025h-1025v1025z" />
</font>
</defs>
</svg>
